<svg width="217" height="22" viewBox="0 0 217 22" fill="none" xmlns="http://www.w3.org/2000/svg">
<path d="M32.0039 0.460693H40.4508C45.5377 0.460693 47.7883 3.26677 47.7883 7.08832C47.7883 10.9099 45.5377 13.7478 40.4508 13.7478H35.149V20.6221H32.0039V0.460693ZM40.5113 10.8494C43.5322 10.8494 44.6114 9.2466 44.6114 7.08832C44.6114 4.93005 43.5322 3.3575 40.5113 3.3575H35.1474V10.8478H40.5113V10.8494Z" fill="white"/>
<path d="M48.9897 13.347V5.39355H51.9184V13.347C51.9184 16.6449 53.7376 18.3098 56.5119 18.3098C59.2861 18.3098 61.1054 16.6449 61.1054 13.347V5.39355H64.034V13.347C64.034 18.4021 61.0131 21.0236 56.5119 21.0236C52.0107 21.0236 48.9897 18.4339 48.9897 13.347Z" fill="white"/>
<path d="M66.0991 12.6997C66.0991 7.61277 69.1201 4.99292 73.6213 4.99292C78.1224 4.99292 81.1434 7.58253 81.1434 12.6997V20.6229H78.2148V12.6997C78.2148 9.40179 76.3955 7.70509 73.6213 7.70509C70.847 7.70509 69.0278 9.4002 69.0278 12.6997V20.6229H66.0991V12.6997Z" fill="white"/>
<path d="M83.209 14.858V0H86.1376V5.3941H94.5224V8.07603H86.1376V14.858C86.1376 17.263 87.4014 18.3103 89.313 18.3103C91.2245 18.3103 92.5185 17.2933 92.5185 14.858V14.519H95.4169V14.858C95.4169 18.9884 92.9515 21.0241 89.313 21.0241C85.6744 21.0241 83.209 18.99 83.209 14.858Z" fill="white"/>
<path d="M96.2793 13.0085C96.2793 8.38472 99.6695 4.99292 104.479 4.99292C109.289 4.99292 112.68 8.38313 112.68 13.0085C112.68 17.6338 109.288 21.024 104.479 21.024C99.6711 21.024 96.2793 17.6338 96.2793 13.0085ZM109.719 13.0085C109.719 9.92544 107.623 7.70668 104.478 7.70668C101.333 7.70668 99.2366 9.92703 99.2366 13.0085C99.2366 16.0899 101.333 18.3102 104.478 18.3102C107.623 18.3102 109.719 16.0899 109.719 13.0085Z" fill="white"/>
<path d="M121.927 0.460693H125.072V17.7237H136.386V20.6221H121.927V0.460693Z" fill="white"/>
<path d="M137.064 13.0085C137.064 8.38472 140.454 4.99292 145.264 4.99292C150.074 4.99292 153.464 8.38313 153.464 13.0085C153.464 17.6338 150.073 21.024 145.264 21.024C140.456 21.024 137.064 17.6338 137.064 13.0085ZM150.504 13.0085C150.504 9.92544 148.408 7.70668 145.263 7.70668C142.117 7.70668 140.023 9.92703 140.023 13.0085C140.023 16.0899 142.119 18.3102 145.263 18.3102C148.406 18.3102 150.504 16.0899 150.504 13.0085Z" fill="white"/>
<path d="M153.28 5.39355H156.485L161.448 18.0026L166.411 5.39355H169.524L163.174 20.6225H159.629L153.278 5.39355H153.28Z" fill="white"/>
<path d="M169.34 13.0085C169.34 8.38473 172.73 4.99292 177.54 4.99292C182.35 4.99292 185.678 8.38313 185.678 13.0085V14.0876H172.423C172.854 16.7998 174.888 18.3118 177.54 18.3118C179.514 18.3118 180.9 17.6959 181.795 16.37H185.032C183.86 19.2064 181.086 21.0256 177.54 21.0256C172.732 21.0256 169.34 17.6354 169.34 13.0101V13.0085ZM182.597 11.4662C182.011 9.03093 180.007 7.70509 177.542 7.70509C175.076 7.70509 173.103 9.06118 172.517 11.4662H182.597Z" fill="white"/>
<path d="M187.128 11.6502C187.128 7.149 189.779 4.99072 193.693 4.99072C197.607 4.99072 200.229 7.149 200.229 11.6804V11.8348H197.33V11.6502C197.33 8.8457 195.85 7.70449 193.692 7.70449C191.533 7.70449 190.053 8.8457 190.053 11.6502V20.6207H187.125V11.6502H187.128Z" fill="white"/>
<path d="M200.662 13.131C200.662 8.35289 204.052 4.99292 208.892 4.99292C213.732 4.99292 217 8.26057 217 13.131V20.6213H214.318V17.2916C213.301 19.7571 211.05 21.0224 208.399 21.0224C204.421 21.0224 200.662 18.1559 200.662 13.131ZM214.102 13.0085C214.102 9.92544 212.005 7.70668 208.86 7.70668C205.715 7.70668 203.62 9.92703 203.62 13.0085C203.62 16.0899 205.717 18.3102 208.86 18.3102C212.004 18.3102 214.102 16.0899 214.102 13.0085Z" fill="white"/>
<path d="M3.35838 0.468994H0V20.6209H3.35838V0.468994Z" fill="white"/>
<path d="M20.1514 17.2634H6.71631V20.6218H20.1514V17.2634Z" fill="white"/>
<path d="M13.4347 0.469238H13.4331C9.7235 0.469238 6.71631 3.47644 6.71631 7.186V7.18759C6.71631 10.8972 9.7235 13.9044 13.4331 13.9044H13.4347C17.1442 13.9044 20.1514 10.8972 20.1514 7.18759V7.186C20.1514 3.47644 17.1442 0.469238 13.4347 0.469238Z" fill="white"/>
</svg>
