<svg width="457" height="45" viewBox="0 0 457 45" fill="none" xmlns="http://www.w3.org/2000/svg">
<path d="M67.25 0.972656H85.041C95.7552 0.972656 100.495 6.88289 100.495 14.9319C100.495 22.981 95.7552 28.9583 85.041 28.9583H73.8743V43.4372H67.25V0.972656ZM85.1718 22.8536C91.5346 22.8536 93.8075 19.4778 93.8075 14.9319C93.8075 10.3861 91.5346 7.07397 85.1718 7.07397H73.8743V22.8502H85.1718V22.8536Z" fill="#2E2D2B"/>
<path d="M103.025 28.1151V11.3633H109.194V28.1151C109.194 35.0612 113.026 38.5678 118.869 38.5678C124.712 38.5678 128.544 35.0612 128.544 28.1151V11.3633H134.712V28.1151C134.712 38.7622 128.349 44.2836 118.869 44.2836C109.388 44.2836 103.025 38.8293 103.025 28.1151Z" fill="#2E2D2B"/>
<path d="M139.061 26.7517C139.061 16.0375 145.423 10.5195 154.904 10.5195C164.384 10.5195 170.747 15.9738 170.747 26.7517V43.4398H164.579V26.7517C164.579 19.8056 160.747 16.232 154.904 16.232C149.061 16.232 145.229 19.8023 145.229 26.7517V43.4398H139.061V26.7517Z" fill="#2E2D2B"/>
<path d="M175.098 31.2944V0H181.266V11.3612H198.926V17.0099H181.266V31.2944C181.266 36.3598 183.928 38.5657 187.954 38.5657C191.98 38.5657 194.706 36.4235 194.706 31.2944V30.5803H200.81V31.2944C200.81 39.9938 195.618 44.2815 187.954 44.2815C180.29 44.2815 175.098 39.9972 175.098 31.2944Z" fill="#2E2D2B"/>
<path d="M202.627 27.4021C202.627 17.6634 209.768 10.5195 219.898 10.5195C230.029 10.5195 237.17 17.6601 237.17 27.4021C237.17 37.1441 230.026 44.2846 219.898 44.2846C209.771 44.2846 202.627 37.1441 202.627 27.4021ZM230.934 27.4021C230.934 20.9085 226.519 16.2353 219.895 16.2353C213.271 16.2353 208.856 20.9119 208.856 27.4021C208.856 33.8923 213.271 38.5688 219.895 38.5688C226.519 38.5688 230.934 33.8923 230.934 27.4021Z" fill="#2E2D2B"/>
<path d="M256.648 0.972656H263.273V37.3325H287.101V43.4372H256.648V0.972656Z" fill="#2E2D2B"/>
<path d="M288.529 27.4021C288.529 17.6634 295.67 10.5195 305.801 10.5195C315.932 10.5195 323.072 17.6601 323.072 27.4021C323.072 37.1441 315.928 44.2846 305.801 44.2846C295.673 44.2846 288.529 37.1441 288.529 27.4021ZM316.837 27.4021C316.837 20.9085 312.422 16.2353 305.797 16.2353C299.173 16.2353 294.761 20.9119 294.761 27.4021C294.761 33.8923 299.176 38.5688 305.797 38.5688C312.418 38.5688 316.837 33.8923 316.837 27.4021Z" fill="#2E2D2B"/>
<path d="M322.683 11.3633H329.435L339.887 37.9208L350.34 11.3633H356.897L343.521 43.4388H336.056L322.68 11.3633H322.683Z" fill="#2E2D2B"/>
<path d="M356.512 27.4021C356.512 17.6634 363.652 10.5195 373.783 10.5195C383.914 10.5195 390.924 17.6601 390.924 27.4021V29.675H363.005C363.914 35.3874 368.198 38.5722 373.783 38.5722C377.94 38.5722 380.86 37.2748 382.744 34.4823H389.563C387.095 40.4562 381.252 44.288 373.783 44.288C363.656 44.288 356.512 37.1474 356.512 27.4054V27.4021ZM384.43 24.157C383.197 19.0279 378.976 16.2353 373.783 16.2353C368.59 16.2353 364.433 19.0915 363.2 24.157H384.43Z" fill="#2E2D2B"/>
<path d="M393.975 24.5459C393.975 15.0653 399.561 10.5195 407.804 10.5195C416.047 10.5195 421.569 15.0653 421.569 24.6096V24.9347H415.464V24.5459C415.464 18.639 412.346 16.2353 407.801 16.2353C403.255 16.2353 400.137 18.639 400.137 24.5459V43.4398H393.969V24.5459H393.975Z" fill="#2E2D2B"/>
<path d="M422.48 27.6602C422.48 17.5964 429.621 10.5195 439.816 10.5195C450.01 10.5195 456.893 17.402 456.893 27.6602V43.4365H451.244V36.4233C449.102 41.6161 444.361 44.2813 438.776 44.2813C430.399 44.2813 422.48 38.2437 422.48 27.6602ZM450.788 27.3987C450.788 20.9052 446.373 16.232 439.749 16.232C433.124 16.232 428.713 20.9085 428.713 27.3987C428.713 33.8889 433.128 38.5655 439.749 38.5655C446.369 38.5655 450.788 33.8889 450.788 27.3987Z" fill="#2E2D2B"/>
<path d="M7.07351 0.996094H0V43.4405H7.07351V0.996094Z" fill="#3E6D72"/>
<path d="M42.4439 36.3672H14.1465V43.4407H42.4439V36.3672Z" fill="#3E6D72"/>
<path d="M28.2968 0.996094H28.2935C20.4803 0.996094 14.1465 7.32993 14.1465 15.1431V15.1465C14.1465 22.9596 20.4803 29.2935 28.2935 29.2935H28.2968C36.11 29.2935 42.4439 22.9596 42.4439 15.1465V15.1431C42.4439 7.32993 36.11 0.996094 28.2968 0.996094Z" fill="#3E6D72"/>
</svg>
